<?xml version="1.0" encoding="UTF-8" standalone="no"?>
<!DOCTYPE svg PUBLIC "-//W3C//DTD SVG 1.1//EN"
 "http://www.w3.org/Graphics/SVG/1.1/DTD/svg11.dtd">
<!-- Generated by graphviz version 2.40.1 (20161225.0304)
 -->
<!-- Title: dependencies Pages: 1 -->
<svg width="2367pt" height="284pt"
 viewBox="0.00 0.00 2367.00 284.00" xmlns="http://www.w3.org/2000/svg" xmlns:xlink="http://www.w3.org/1999/xlink">
<g id="graph0" class="graph" transform="scale(1 1) rotate(0) translate(4 280)">
<title>dependencies</title>
<polygon fill="#ffffff" stroke="transparent" points="-4,4 -4,-280 2363,-280 2363,4 -4,4"/>
<text text-anchor="start" x="1158.5091" y="-42.4" font-family="sans-serif" font-weight="bold" font-size="14.00" fill="#000000">Legend</text>
<polygon fill="#ffffb3" stroke="transparent" points="945.5,-10 945.5,-30 965.5,-30 965.5,-10 945.5,-10"/>
<text text-anchor="start" x="969.129" y="-15.4" font-family="sans-serif" font-size="14.00" fill="#000000"> &#160;Declarations</text>
<polygon fill="#8dd3c7" stroke="transparent" points="1058.5,-10 1058.5,-30 1078.5,-30 1078.5,-10 1058.5,-10"/>
<text text-anchor="start" x="1082.2251" y="-15.4" font-family="sans-serif" font-size="14.00" fill="#000000"> &#160;Module</text>
<polygon fill="#80b1d3" stroke="transparent" points="1144.5,-10 1144.5,-30 1164.5,-30 1164.5,-10 1144.5,-10"/>
<text text-anchor="start" x="1168.2812" y="-15.4" font-family="sans-serif" font-size="14.00" fill="#000000"> &#160;Bootstrap</text>
<polygon fill="#fdb462" stroke="transparent" points="1241.5,-10 1241.5,-30 1261.5,-30 1261.5,-10 1241.5,-10"/>
<text text-anchor="start" x="1265.1732" y="-15.4" font-family="sans-serif" font-size="14.00" fill="#000000"> &#160;Providers</text>
<polygon fill="#fb8072" stroke="transparent" points="1337.5,-10 1337.5,-30 1357.5,-30 1357.5,-10 1337.5,-10"/>
<text text-anchor="start" x="1361.2258" y="-15.4" font-family="sans-serif" font-size="14.00" fill="#000000"> &#160;Exports</text>
<g id="clust1" class="cluster">
<title>cluster_AppModule</title>
<polygon fill="none" stroke="#000000" stroke-dasharray="1,5" points="8,-70 8,-268 337,-268 337,-70 8,-70"/>
</g>
<g id="clust2" class="cluster">
<title>cluster_AppModule_declarations</title>
<polygon fill="none" stroke="#000000" points="253,-78 253,-130 329,-130 329,-78 253,-78"/>
</g>
<g id="clust6" class="cluster">
<title>cluster_AppModule_bootstrap</title>
<polygon fill="none" stroke="#000000" points="127,-208 127,-260 215,-260 215,-208 127,-208"/>
</g>
<g id="clust7" class="cluster">
<title>cluster_AppModule_providers</title>
<polygon fill="none" stroke="#000000" points="16,-78 16,-130 245,-130 245,-78 16,-78"/>
</g>
<g id="clust8" class="cluster">
<title>cluster_CardsPageModule</title>
<polygon fill="none" stroke="#000000" stroke-dasharray="1,5" points="345,-70 345,-268 481,-268 481,-70 345,-70"/>
</g>
<g id="clust9" class="cluster">
<title>cluster_CardsPageModule_declarations</title>
<polygon fill="none" stroke="#000000" points="367,-78 367,-130 459,-130 459,-78 367,-78"/>
</g>
<g id="clust12" class="cluster">
<title>cluster_CardsPageModule_exports</title>
<polygon fill="none" stroke="#000000" points="365,-208 365,-260 461,-260 461,-208 365,-208"/>
</g>
<g id="clust15" class="cluster">
<title>cluster_ContentPageModule</title>
<polygon fill="none" stroke="#000000" stroke-dasharray="1,5" points="489,-70 489,-268 637,-268 637,-70 489,-70"/>
</g>
<g id="clust16" class="cluster">
<title>cluster_ContentPageModule_declarations</title>
<polygon fill="none" stroke="#000000" points="511,-78 511,-130 615,-130 615,-78 511,-78"/>
</g>
<g id="clust19" class="cluster">
<title>cluster_ContentPageModule_exports</title>
<polygon fill="none" stroke="#000000" points="509,-208 509,-260 617,-260 617,-208 509,-208"/>
</g>
<g id="clust22" class="cluster">
<title>cluster_ItemCreatePageModule</title>
<polygon fill="none" stroke="#000000" stroke-dasharray="1,5" points="645,-70 645,-268 809,-268 809,-70 645,-70"/>
</g>
<g id="clust23" class="cluster">
<title>cluster_ItemCreatePageModule_declarations</title>
<polygon fill="none" stroke="#000000" points="666,-78 666,-130 788,-130 788,-78 666,-78"/>
</g>
<g id="clust26" class="cluster">
<title>cluster_ItemCreatePageModule_exports</title>
<polygon fill="none" stroke="#000000" points="665,-208 665,-260 789,-260 789,-208 665,-208"/>
</g>
<g id="clust29" class="cluster">
<title>cluster_ItemDetailPageModule</title>
<polygon fill="none" stroke="#000000" stroke-dasharray="1,5" points="817,-70 817,-268 979,-268 979,-70 817,-70"/>
</g>
<g id="clust30" class="cluster">
<title>cluster_ItemDetailPageModule_declarations</title>
<polygon fill="none" stroke="#000000" points="838,-78 838,-130 958,-130 958,-78 838,-78"/>
</g>
<g id="clust33" class="cluster">
<title>cluster_ItemDetailPageModule_exports</title>
<polygon fill="none" stroke="#000000" points="837,-208 837,-260 959,-260 959,-208 837,-208"/>
</g>
<g id="clust36" class="cluster">
<title>cluster_ListMasterPageModule</title>
<polygon fill="none" stroke="#000000" stroke-dasharray="1,5" points="987,-70 987,-268 1151,-268 1151,-70 987,-70"/>
</g>
<g id="clust37" class="cluster">
<title>cluster_ListMasterPageModule_declarations</title>
<polygon fill="none" stroke="#000000" points="1009,-78 1009,-130 1129,-130 1129,-78 1009,-78"/>
</g>
<g id="clust40" class="cluster">
<title>cluster_ListMasterPageModule_exports</title>
<polygon fill="none" stroke="#000000" points="1007,-208 1007,-260 1131,-260 1131,-208 1007,-208"/>
</g>
<g id="clust43" class="cluster">
<title>cluster_LoginPageModule</title>
<polygon fill="none" stroke="#000000" stroke-dasharray="1,5" points="1159,-70 1159,-268 1295,-268 1295,-70 1159,-70"/>
</g>
<g id="clust44" class="cluster">
<title>cluster_LoginPageModule_declarations</title>
<polygon fill="none" stroke="#000000" points="1181,-78 1181,-130 1273,-130 1273,-78 1181,-78"/>
</g>
<g id="clust47" class="cluster">
<title>cluster_LoginPageModule_exports</title>
<polygon fill="none" stroke="#000000" points="1179,-208 1179,-260 1275,-260 1275,-208 1179,-208"/>
</g>
<g id="clust50" class="cluster">
<title>cluster_MenuPageModule</title>
<polygon fill="none" stroke="#000000" stroke-dasharray="1,5" points="1303,-70 1303,-268 1439,-268 1439,-70 1303,-70"/>
</g>
<g id="clust51" class="cluster">
<title>cluster_MenuPageModule_declarations</title>
<polygon fill="none" stroke="#000000" points="1325,-78 1325,-130 1417,-130 1417,-78 1325,-78"/>
</g>
<g id="clust54" class="cluster">
<title>cluster_MenuPageModule_exports</title>
<polygon fill="none" stroke="#000000" points="1323,-208 1323,-260 1419,-260 1419,-208 1323,-208"/>
</g>
<g id="clust57" class="cluster">
<title>cluster_SearchPageModule</title>
<polygon fill="none" stroke="#000000" stroke-dasharray="1,5" points="1447,-70 1447,-268 1587,-268 1587,-70 1447,-70"/>
</g>
<g id="clust58" class="cluster">
<title>cluster_SearchPageModule_declarations</title>
<polygon fill="none" stroke="#000000" points="1468,-78 1468,-130 1566,-130 1566,-78 1468,-78"/>
</g>
<g id="clust61" class="cluster">
<title>cluster_SearchPageModule_exports</title>
<polygon fill="none" stroke="#000000" points="1467,-208 1467,-260 1567,-260 1567,-208 1467,-208"/>
</g>
<g id="clust64" class="cluster">
<title>cluster_SettingsPageModule</title>
<polygon fill="none" stroke="#000000" stroke-dasharray="1,5" points="1595,-70 1595,-268 1743,-268 1743,-70 1595,-70"/>
</g>
<g id="clust65" class="cluster">
<title>cluster_SettingsPageModule_declarations</title>
<polygon fill="none" stroke="#000000" points="1617,-78 1617,-130 1721,-130 1721,-78 1617,-78"/>
</g>
<g id="clust68" class="cluster">
<title>cluster_SettingsPageModule_exports</title>
<polygon fill="none" stroke="#000000" points="1615,-208 1615,-260 1723,-260 1723,-208 1615,-208"/>
</g>
<g id="clust71" class="cluster">
<title>cluster_SignupPageModule</title>
<polygon fill="none" stroke="#000000" stroke-dasharray="1,5" points="1751,-70 1751,-268 1893,-268 1893,-70 1751,-70"/>
</g>
<g id="clust72" class="cluster">
<title>cluster_SignupPageModule_declarations</title>
<polygon fill="none" stroke="#000000" points="1773,-78 1773,-130 1871,-130 1871,-78 1773,-78"/>
</g>
<g id="clust75" class="cluster">
<title>cluster_SignupPageModule_exports</title>
<polygon fill="none" stroke="#000000" points="1771,-208 1771,-260 1873,-260 1873,-208 1771,-208"/>
</g>
<g id="clust78" class="cluster">
<title>cluster_TabsPageModule</title>
<polygon fill="none" stroke="#000000" stroke-dasharray="1,5" points="1901,-70 1901,-268 2031,-268 2031,-70 1901,-70"/>
</g>
<g id="clust79" class="cluster">
<title>cluster_TabsPageModule_declarations</title>
<polygon fill="none" stroke="#000000" points="1923,-78 1923,-130 2009,-130 2009,-78 1923,-78"/>
</g>
<g id="clust82" class="cluster">
<title>cluster_TabsPageModule_exports</title>
<polygon fill="none" stroke="#000000" points="1921,-208 1921,-260 2011,-260 2011,-208 1921,-208"/>
</g>
<g id="clust85" class="cluster">
<title>cluster_TutorialPageModule</title>
<polygon fill="none" stroke="#000000" stroke-dasharray="1,5" points="2039,-70 2039,-268 2187,-268 2187,-70 2039,-70"/>
</g>
<g id="clust86" class="cluster">
<title>cluster_TutorialPageModule_declarations</title>
<polygon fill="none" stroke="#000000" points="2061,-78 2061,-130 2165,-130 2165,-78 2061,-78"/>
</g>
<g id="clust89" class="cluster">
<title>cluster_TutorialPageModule_exports</title>
<polygon fill="none" stroke="#000000" points="2059,-208 2059,-260 2167,-260 2167,-208 2059,-208"/>
</g>
<g id="clust92" class="cluster">
<title>cluster_WelcomePageModule</title>
<polygon fill="none" stroke="#000000" stroke-dasharray="1,5" points="2195,-70 2195,-268 2351,-268 2351,-70 2195,-70"/>
</g>
<g id="clust93" class="cluster">
<title>cluster_WelcomePageModule_declarations</title>
<polygon fill="none" stroke="#000000" points="2217,-78 2217,-130 2329,-130 2329,-78 2217,-78"/>
</g>
<g id="clust96" class="cluster">
<title>cluster_WelcomePageModule_exports</title>
<polygon fill="none" stroke="#000000" points="2215,-208 2215,-260 2331,-260 2331,-208 2215,-208"/>
</g>
<!-- MyApp -->
<g id="node1" class="node">
<title>MyApp</title>
<polygon fill="#ffffb3" stroke="#000000" points="320.5529,-122 261.4471,-122 261.4471,-86 320.5529,-86 320.5529,-122"/>
<text text-anchor="middle" x="291" y="-99.8" font-family="Times,serif" font-size="14.00" fill="#000000">MyApp</text>
</g>
<!-- AppModule -->
<g id="node2" class="node">
<title>AppModule</title>
<polygon fill="#8dd3c7" stroke="#000000" points="212.6571,-187 209.6571,-191 188.6571,-191 185.6571,-187 129.3429,-187 129.3429,-151 212.6571,-151 212.6571,-187"/>
<text text-anchor="middle" x="171" y="-164.8" font-family="Times,serif" font-size="14.00" fill="#000000">AppModule</text>
</g>
<!-- MyApp&#45;&gt;AppModule -->
<g id="edge1" class="edge">
<title>MyApp&#45;&gt;AppModule</title>
<path fill="none" stroke="#000000" d="M291,-122.1061C291,-141.3391 291,-169 291,-169 291,-169 222.9702,-169 222.9702,-169"/>
<polygon fill="#000000" stroke="#000000" points="222.9702,-165.5001 212.9702,-169 222.9701,-172.5001 222.9702,-165.5001"/>
</g>
<!-- IonicApp  -->
<g id="node3" class="node">
<title>IonicApp </title>
<polygon fill="#80b1d3" stroke="#000000" points="207.3734,-252 134.6266,-252 134.6266,-216 207.3734,-216 207.3734,-252"/>
<text text-anchor="middle" x="171" y="-229.8" font-family="Times,serif" font-size="14.00" fill="#000000">IonicApp </text>
</g>
<!-- AppModule&#45;&gt;IonicApp  -->
<g id="edge2" class="edge">
<title>AppModule&#45;&gt;IonicApp </title>
<path fill="none" stroke="#000000" stroke-dasharray="1,5" d="M171,-187.1061C171,-187.1061 171,-205.991 171,-205.991"/>
<polygon fill="#000000" stroke="#000000" points="167.5001,-205.9909 171,-215.991 174.5001,-205.991 167.5001,-205.9909"/>
</g>
<!-- Api -->
<g id="node4" class="node">
<title>Api</title>
<ellipse fill="#fdb462" stroke="#000000" cx="210" cy="-104" rx="27" ry="18"/>
<text text-anchor="middle" x="210" y="-99.8" font-family="Times,serif" font-size="14.00" fill="#000000">Api</text>
</g>
<!-- Api&#45;&gt;AppModule -->
<g id="edge3" class="edge">
<title>Api&#45;&gt;AppModule</title>
<path fill="none" stroke="#000000" d="M197.9141,-120.4022C197.9141,-120.4022 197.9141,-140.5366 197.9141,-140.5366"/>
<polygon fill="#000000" stroke="#000000" points="194.4142,-140.5366 197.9141,-150.5366 201.4142,-140.5367 194.4142,-140.5366"/>
</g>
<!-- Items -->
<g id="node5" class="node">
<title>Items</title>
<ellipse fill="#fdb462" stroke="#000000" cx="133" cy="-104" rx="32.4788" ry="18"/>
<text text-anchor="middle" x="133" y="-99.8" font-family="Times,serif" font-size="14.00" fill="#000000">Items</text>
</g>
<!-- Items&#45;&gt;AppModule -->
<g id="edge4" class="edge">
<title>Items&#45;&gt;AppModule</title>
<path fill="none" stroke="#000000" d="M147.3306,-120.4022C147.3306,-120.4022 147.3306,-140.5366 147.3306,-140.5366"/>
<polygon fill="#000000" stroke="#000000" points="143.8307,-140.5366 147.3306,-150.5366 150.8307,-140.5367 143.8307,-140.5366"/>
</g>
<!-- User -->
<g id="node6" class="node">
<title>User</title>
<ellipse fill="#fdb462" stroke="#000000" cx="53" cy="-104" rx="29.0318" ry="18"/>
<text text-anchor="middle" x="53" y="-99.8" font-family="Times,serif" font-size="14.00" fill="#000000">User</text>
</g>
<!-- User&#45;&gt;AppModule -->
<g id="edge5" class="edge">
<title>User&#45;&gt;AppModule</title>
<path fill="none" stroke="#000000" d="M53,-122.1061C53,-141.3391 53,-169 53,-169 53,-169 119.0654,-169 119.0654,-169"/>
<polygon fill="#000000" stroke="#000000" points="119.0654,-172.5001 129.0654,-169 119.0653,-165.5001 119.0654,-172.5001"/>
</g>
<!-- CardsPage -->
<g id="node7" class="node">
<title>CardsPage</title>
<polygon fill="#ffffb3" stroke="#000000" points="450.8683,-122 375.1317,-122 375.1317,-86 450.8683,-86 450.8683,-122"/>
<text text-anchor="middle" x="413" y="-99.8" font-family="Times,serif" font-size="14.00" fill="#000000">CardsPage</text>
</g>
<!-- CardsPageModule -->
<g id="node8" class="node">
<title>CardsPageModule</title>
<polygon fill="#8dd3c7" stroke="#000000" points="472.9187,-187 469.9187,-191 448.9187,-191 445.9187,-187 353.0813,-187 353.0813,-151 472.9187,-151 472.9187,-187"/>
<text text-anchor="middle" x="413" y="-164.8" font-family="Times,serif" font-size="14.00" fill="#000000">CardsPageModule</text>
</g>
<!-- CardsPage&#45;&gt;CardsPageModule -->
<g id="edge6" class="edge">
<title>CardsPage&#45;&gt;CardsPageModule</title>
<path fill="none" stroke="#000000" d="M413,-122.1061C413,-122.1061 413,-140.991 413,-140.991"/>
<polygon fill="#000000" stroke="#000000" points="409.5001,-140.9909 413,-150.991 416.5001,-140.991 409.5001,-140.9909"/>
</g>
<!-- CardsPage  -->
<g id="node9" class="node">
<title>CardsPage </title>
<polygon fill="#fb8072" stroke="#000000" points="452.8691,-252 373.1309,-252 373.1309,-216 452.8691,-216 452.8691,-252"/>
<text text-anchor="middle" x="413" y="-229.8" font-family="Times,serif" font-size="14.00" fill="#000000">CardsPage </text>
</g>
<!-- CardsPageModule&#45;&gt;CardsPage  -->
<g id="edge7" class="edge">
<title>CardsPageModule&#45;&gt;CardsPage </title>
<path fill="none" stroke="#000000" stroke-dasharray="5,2" d="M413,-187.1061C413,-187.1061 413,-205.991 413,-205.991"/>
<polygon fill="#000000" stroke="#000000" points="409.5001,-205.9909 413,-215.991 416.5001,-205.991 409.5001,-205.9909"/>
</g>
<!-- ContentPage -->
<g id="node10" class="node">
<title>ContentPage</title>
<polygon fill="#ffffb3" stroke="#000000" points="606.5454,-122 519.4546,-122 519.4546,-86 606.5454,-86 606.5454,-122"/>
<text text-anchor="middle" x="563" y="-99.8" font-family="Times,serif" font-size="14.00" fill="#000000">ContentPage</text>
</g>
<!-- ContentPageModule -->
<g id="node11" class="node">
<title>ContentPageModule</title>
<polygon fill="#8dd3c7" stroke="#000000" points="628.594,-187 625.594,-191 604.594,-191 601.594,-187 497.406,-187 497.406,-151 628.594,-151 628.594,-187"/>
<text text-anchor="middle" x="563" y="-164.8" font-family="Times,serif" font-size="14.00" fill="#000000">ContentPageModule</text>
</g>
<!-- ContentPage&#45;&gt;ContentPageModule -->
<g id="edge8" class="edge">
<title>ContentPage&#45;&gt;ContentPageModule</title>
<path fill="none" stroke="#000000" d="M563,-122.1061C563,-122.1061 563,-140.991 563,-140.991"/>
<polygon fill="#000000" stroke="#000000" points="559.5001,-140.9909 563,-150.991 566.5001,-140.991 559.5001,-140.9909"/>
</g>
<!-- ContentPage  -->
<g id="node12" class="node">
<title>ContentPage </title>
<polygon fill="#fb8072" stroke="#000000" points="608.5442,-252 517.4558,-252 517.4558,-216 608.5442,-216 608.5442,-252"/>
<text text-anchor="middle" x="563" y="-229.8" font-family="Times,serif" font-size="14.00" fill="#000000">ContentPage </text>
</g>
<!-- ContentPageModule&#45;&gt;ContentPage  -->
<g id="edge9" class="edge">
<title>ContentPageModule&#45;&gt;ContentPage </title>
<path fill="none" stroke="#000000" stroke-dasharray="5,2" d="M563,-187.1061C563,-187.1061 563,-205.991 563,-205.991"/>
<polygon fill="#000000" stroke="#000000" points="559.5001,-205.9909 563,-215.991 566.5001,-205.991 559.5001,-205.9909"/>
</g>
<!-- ItemCreatePage -->
<g id="node13" class="node">
<title>ItemCreatePage</title>
<polygon fill="#ffffb3" stroke="#000000" points="779.9006,-122 674.0994,-122 674.0994,-86 779.9006,-86 779.9006,-122"/>
<text text-anchor="middle" x="727" y="-99.8" font-family="Times,serif" font-size="14.00" fill="#000000">ItemCreatePage</text>
</g>
<!-- ItemCreatePageModule -->
<g id="node14" class="node">
<title>ItemCreatePageModule</title>
<polygon fill="#8dd3c7" stroke="#000000" points="801.4496,-187 798.4496,-191 777.4496,-191 774.4496,-187 652.5504,-187 652.5504,-151 801.4496,-151 801.4496,-187"/>
<text text-anchor="middle" x="727" y="-164.8" font-family="Times,serif" font-size="14.00" fill="#000000">ItemCreatePageModule</text>
</g>
<!-- ItemCreatePage&#45;&gt;ItemCreatePageModule -->
<g id="edge10" class="edge">
<title>ItemCreatePage&#45;&gt;ItemCreatePageModule</title>
<path fill="none" stroke="#000000" d="M727,-122.1061C727,-122.1061 727,-140.991 727,-140.991"/>
<polygon fill="#000000" stroke="#000000" points="723.5001,-140.9909 727,-150.991 730.5001,-140.991 723.5001,-140.9909"/>
</g>
<!-- ItemCreatePage  -->
<g id="node15" class="node">
<title>ItemCreatePage </title>
<polygon fill="#fb8072" stroke="#000000" points="781.3998,-252 672.6002,-252 672.6002,-216 781.3998,-216 781.3998,-252"/>
<text text-anchor="middle" x="727" y="-229.8" font-family="Times,serif" font-size="14.00" fill="#000000">ItemCreatePage </text>
</g>
<!-- ItemCreatePageModule&#45;&gt;ItemCreatePage  -->
<g id="edge11" class="edge">
<title>ItemCreatePageModule&#45;&gt;ItemCreatePage </title>
<path fill="none" stroke="#000000" stroke-dasharray="5,2" d="M727,-187.1061C727,-187.1061 727,-205.991 727,-205.991"/>
<polygon fill="#000000" stroke="#000000" points="723.5001,-205.9909 727,-215.991 730.5001,-205.991 723.5001,-205.9909"/>
</g>
<!-- ItemDetailPage -->
<g id="node16" class="node">
<title>ItemDetailPage</title>
<polygon fill="#ffffb3" stroke="#000000" points="949.5758,-122 846.4242,-122 846.4242,-86 949.5758,-86 949.5758,-122"/>
<text text-anchor="middle" x="898" y="-99.8" font-family="Times,serif" font-size="14.00" fill="#000000">ItemDetailPage</text>
</g>
<!-- ItemDetailPageModule -->
<g id="node17" class="node">
<title>ItemDetailPageModule</title>
<polygon fill="#8dd3c7" stroke="#000000" points="971.1261,-187 968.1261,-191 947.1261,-191 944.1261,-187 824.8739,-187 824.8739,-151 971.1261,-151 971.1261,-187"/>
<text text-anchor="middle" x="898" y="-164.8" font-family="Times,serif" font-size="14.00" fill="#000000">ItemDetailPageModule</text>
</g>
<!-- ItemDetailPage&#45;&gt;ItemDetailPageModule -->
<g id="edge12" class="edge">
<title>ItemDetailPage&#45;&gt;ItemDetailPageModule</title>
<path fill="none" stroke="#000000" d="M898,-122.1061C898,-122.1061 898,-140.991 898,-140.991"/>
<polygon fill="#000000" stroke="#000000" points="894.5001,-140.9909 898,-150.991 901.5001,-140.991 894.5001,-140.9909"/>
</g>
<!-- ItemDetailPage  -->
<g id="node18" class="node">
<title>ItemDetailPage </title>
<polygon fill="#fb8072" stroke="#000000" points="951.0766,-252 844.9234,-252 844.9234,-216 951.0766,-216 951.0766,-252"/>
<text text-anchor="middle" x="898" y="-229.8" font-family="Times,serif" font-size="14.00" fill="#000000">ItemDetailPage </text>
</g>
<!-- ItemDetailPageModule&#45;&gt;ItemDetailPage  -->
<g id="edge13" class="edge">
<title>ItemDetailPageModule&#45;&gt;ItemDetailPage </title>
<path fill="none" stroke="#000000" stroke-dasharray="5,2" d="M898,-187.1061C898,-187.1061 898,-205.991 898,-205.991"/>
<polygon fill="#000000" stroke="#000000" points="894.5001,-205.9909 898,-215.991 901.5001,-205.991 894.5001,-205.9909"/>
</g>
<!-- ListMasterPage -->
<g id="node19" class="node">
<title>ListMasterPage</title>
<polygon fill="#ffffb3" stroke="#000000" points="1120.8599,-122 1017.1401,-122 1017.1401,-86 1120.8599,-86 1120.8599,-122"/>
<text text-anchor="middle" x="1069" y="-99.8" font-family="Times,serif" font-size="14.00" fill="#000000">ListMasterPage</text>
</g>
<!-- ListMasterPageModule -->
<g id="node20" class="node">
<title>ListMasterPageModule</title>
<polygon fill="#8dd3c7" stroke="#000000" points="1142.9102,-187 1139.9102,-191 1118.9102,-191 1115.9102,-187 995.0898,-187 995.0898,-151 1142.9102,-151 1142.9102,-187"/>
<text text-anchor="middle" x="1069" y="-164.8" font-family="Times,serif" font-size="14.00" fill="#000000">ListMasterPageModule</text>
</g>
<!-- ListMasterPage&#45;&gt;ListMasterPageModule -->
<g id="edge14" class="edge">
<title>ListMasterPage&#45;&gt;ListMasterPageModule</title>
<path fill="none" stroke="#000000" d="M1069,-122.1061C1069,-122.1061 1069,-140.991 1069,-140.991"/>
<polygon fill="#000000" stroke="#000000" points="1065.5001,-140.9909 1069,-150.991 1072.5001,-140.991 1065.5001,-140.9909"/>
</g>
<!-- ListMasterPage  -->
<g id="node21" class="node">
<title>ListMasterPage </title>
<polygon fill="#fb8072" stroke="#000000" points="1122.8604,-252 1015.1396,-252 1015.1396,-216 1122.8604,-216 1122.8604,-252"/>
<text text-anchor="middle" x="1069" y="-229.8" font-family="Times,serif" font-size="14.00" fill="#000000">ListMasterPage </text>
</g>
<!-- ListMasterPageModule&#45;&gt;ListMasterPage  -->
<g id="edge15" class="edge">
<title>ListMasterPageModule&#45;&gt;ListMasterPage </title>
<path fill="none" stroke="#000000" stroke-dasharray="5,2" d="M1069,-187.1061C1069,-187.1061 1069,-205.991 1069,-205.991"/>
<polygon fill="#000000" stroke="#000000" points="1065.5001,-205.9909 1069,-215.991 1072.5001,-205.991 1065.5001,-205.9909"/>
</g>
<!-- LoginPage -->
<g id="node22" class="node">
<title>LoginPage</title>
<polygon fill="#ffffb3" stroke="#000000" points="1265.1558,-122 1188.8442,-122 1188.8442,-86 1265.1558,-86 1265.1558,-122"/>
<text text-anchor="middle" x="1227" y="-99.8" font-family="Times,serif" font-size="14.00" fill="#000000">LoginPage</text>
</g>
<!-- LoginPageModule -->
<g id="node23" class="node">
<title>LoginPageModule</title>
<polygon fill="#8dd3c7" stroke="#000000" points="1287.205,-187 1284.205,-191 1263.205,-191 1260.205,-187 1166.795,-187 1166.795,-151 1287.205,-151 1287.205,-187"/>
<text text-anchor="middle" x="1227" y="-164.8" font-family="Times,serif" font-size="14.00" fill="#000000">LoginPageModule</text>
</g>
<!-- LoginPage&#45;&gt;LoginPageModule -->
<g id="edge16" class="edge">
<title>LoginPage&#45;&gt;LoginPageModule</title>
<path fill="none" stroke="#000000" d="M1227,-122.1061C1227,-122.1061 1227,-140.991 1227,-140.991"/>
<polygon fill="#000000" stroke="#000000" points="1223.5001,-140.9909 1227,-150.991 1230.5001,-140.991 1223.5001,-140.9909"/>
</g>
<!-- LoginPage  -->
<g id="node24" class="node">
<title>LoginPage </title>
<polygon fill="#fb8072" stroke="#000000" points="1267.1552,-252 1186.8448,-252 1186.8448,-216 1267.1552,-216 1267.1552,-252"/>
<text text-anchor="middle" x="1227" y="-229.8" font-family="Times,serif" font-size="14.00" fill="#000000">LoginPage </text>
</g>
<!-- LoginPageModule&#45;&gt;LoginPage  -->
<g id="edge17" class="edge">
<title>LoginPageModule&#45;&gt;LoginPage </title>
<path fill="none" stroke="#000000" stroke-dasharray="5,2" d="M1227,-187.1061C1227,-187.1061 1227,-205.991 1227,-205.991"/>
<polygon fill="#000000" stroke="#000000" points="1223.5001,-205.9909 1227,-215.991 1230.5001,-205.991 1223.5001,-205.9909"/>
</g>
<!-- MenuPage -->
<g id="node25" class="node">
<title>MenuPage</title>
<polygon fill="#ffffb3" stroke="#000000" points="1408.8711,-122 1333.1289,-122 1333.1289,-86 1408.8711,-86 1408.8711,-122"/>
<text text-anchor="middle" x="1371" y="-99.8" font-family="Times,serif" font-size="14.00" fill="#000000">MenuPage</text>
</g>
<!-- MenuPageModule -->
<g id="node26" class="node">
<title>MenuPageModule</title>
<polygon fill="#8dd3c7" stroke="#000000" points="1430.9215,-187 1427.9215,-191 1406.9215,-191 1403.9215,-187 1311.0785,-187 1311.0785,-151 1430.9215,-151 1430.9215,-187"/>
<text text-anchor="middle" x="1371" y="-164.8" font-family="Times,serif" font-size="14.00" fill="#000000">MenuPageModule</text>
</g>
<!-- MenuPage&#45;&gt;MenuPageModule -->
<g id="edge18" class="edge">
<title>MenuPage&#45;&gt;MenuPageModule</title>
<path fill="none" stroke="#000000" d="M1371,-122.1061C1371,-122.1061 1371,-140.991 1371,-140.991"/>
<polygon fill="#000000" stroke="#000000" points="1367.5001,-140.9909 1371,-150.991 1374.5001,-140.991 1367.5001,-140.9909"/>
</g>
<!-- MenuPage  -->
<g id="node27" class="node">
<title>MenuPage </title>
<polygon fill="#fb8072" stroke="#000000" points="1410.8719,-252 1331.1281,-252 1331.1281,-216 1410.8719,-216 1410.8719,-252"/>
<text text-anchor="middle" x="1371" y="-229.8" font-family="Times,serif" font-size="14.00" fill="#000000">MenuPage </text>
</g>
<!-- MenuPageModule&#45;&gt;MenuPage  -->
<g id="edge19" class="edge">
<title>MenuPageModule&#45;&gt;MenuPage </title>
<path fill="none" stroke="#000000" stroke-dasharray="5,2" d="M1371,-187.1061C1371,-187.1061 1371,-205.991 1371,-205.991"/>
<polygon fill="#000000" stroke="#000000" points="1367.5001,-205.9909 1371,-215.991 1374.5001,-205.991 1367.5001,-205.9909"/>
</g>
<!-- SearchPage -->
<g id="node28" class="node">
<title>SearchPage</title>
<polygon fill="#ffffb3" stroke="#000000" points="1557.7994,-122 1476.2006,-122 1476.2006,-86 1557.7994,-86 1557.7994,-122"/>
<text text-anchor="middle" x="1517" y="-99.8" font-family="Times,serif" font-size="14.00" fill="#000000">SearchPage</text>
</g>
<!-- SearchPageModule -->
<g id="node29" class="node">
<title>SearchPageModule</title>
<polygon fill="#8dd3c7" stroke="#000000" points="1579.3487,-187 1576.3487,-191 1555.3487,-191 1552.3487,-187 1454.6513,-187 1454.6513,-151 1579.3487,-151 1579.3487,-187"/>
<text text-anchor="middle" x="1517" y="-164.8" font-family="Times,serif" font-size="14.00" fill="#000000">SearchPageModule</text>
</g>
<!-- SearchPage&#45;&gt;SearchPageModule -->
<g id="edge20" class="edge">
<title>SearchPage&#45;&gt;SearchPageModule</title>
<path fill="none" stroke="#000000" d="M1517,-122.1061C1517,-122.1061 1517,-140.991 1517,-140.991"/>
<polygon fill="#000000" stroke="#000000" points="1513.5001,-140.9909 1517,-150.991 1520.5001,-140.991 1513.5001,-140.9909"/>
</g>
<!-- SearchPage  -->
<g id="node30" class="node">
<title>SearchPage </title>
<polygon fill="#fb8072" stroke="#000000" points="1559.299,-252 1474.701,-252 1474.701,-216 1559.299,-216 1559.299,-252"/>
<text text-anchor="middle" x="1517" y="-229.8" font-family="Times,serif" font-size="14.00" fill="#000000">SearchPage </text>
</g>
<!-- SearchPageModule&#45;&gt;SearchPage  -->
<g id="edge21" class="edge">
<title>SearchPageModule&#45;&gt;SearchPage </title>
<path fill="none" stroke="#000000" stroke-dasharray="5,2" d="M1517,-187.1061C1517,-187.1061 1517,-205.991 1517,-205.991"/>
<polygon fill="#000000" stroke="#000000" points="1513.5001,-205.9909 1517,-215.991 1520.5001,-205.991 1513.5001,-205.9909"/>
</g>
<!-- SettingsPage -->
<g id="node31" class="node">
<title>SettingsPage</title>
<polygon fill="#ffffb3" stroke="#000000" points="1713.326,-122 1624.674,-122 1624.674,-86 1713.326,-86 1713.326,-122"/>
<text text-anchor="middle" x="1669" y="-99.8" font-family="Times,serif" font-size="14.00" fill="#000000">SettingsPage</text>
</g>
<!-- SettingsPageModule -->
<g id="node32" class="node">
<title>SettingsPageModule</title>
<polygon fill="#8dd3c7" stroke="#000000" points="1734.8753,-187 1731.8753,-191 1710.8753,-191 1707.8753,-187 1603.1247,-187 1603.1247,-151 1734.8753,-151 1734.8753,-187"/>
<text text-anchor="middle" x="1669" y="-164.8" font-family="Times,serif" font-size="14.00" fill="#000000">SettingsPageModule</text>
</g>
<!-- SettingsPage&#45;&gt;SettingsPageModule -->
<g id="edge22" class="edge">
<title>SettingsPage&#45;&gt;SettingsPageModule</title>
<path fill="none" stroke="#000000" d="M1669,-122.1061C1669,-122.1061 1669,-140.991 1669,-140.991"/>
<polygon fill="#000000" stroke="#000000" points="1665.5001,-140.9909 1669,-150.991 1672.5001,-140.991 1665.5001,-140.9909"/>
</g>
<!-- SettingsPage  -->
<g id="node33" class="node">
<title>SettingsPage </title>
<polygon fill="#fb8072" stroke="#000000" points="1714.8256,-252 1623.1744,-252 1623.1744,-216 1714.8256,-216 1714.8256,-252"/>
<text text-anchor="middle" x="1669" y="-229.8" font-family="Times,serif" font-size="14.00" fill="#000000">SettingsPage </text>
</g>
<!-- SettingsPageModule&#45;&gt;SettingsPage  -->
<g id="edge23" class="edge">
<title>SettingsPageModule&#45;&gt;SettingsPage </title>
<path fill="none" stroke="#000000" stroke-dasharray="5,2" d="M1669,-187.1061C1669,-187.1061 1669,-205.991 1669,-205.991"/>
<polygon fill="#000000" stroke="#000000" points="1665.5001,-205.9909 1669,-215.991 1672.5001,-205.991 1665.5001,-205.9909"/>
</g>
<!-- SignupPage -->
<g id="node34" class="node">
<title>SignupPage</title>
<polygon fill="#ffffb3" stroke="#000000" points="1863.3851,-122 1780.6149,-122 1780.6149,-86 1863.3851,-86 1863.3851,-122"/>
<text text-anchor="middle" x="1822" y="-99.8" font-family="Times,serif" font-size="14.00" fill="#000000">SignupPage</text>
</g>
<!-- SignupPageModule -->
<g id="node35" class="node">
<title>SignupPageModule</title>
<polygon fill="#8dd3c7" stroke="#000000" points="1885.4356,-187 1882.4356,-191 1861.4356,-191 1858.4356,-187 1758.5644,-187 1758.5644,-151 1885.4356,-151 1885.4356,-187"/>
<text text-anchor="middle" x="1822" y="-164.8" font-family="Times,serif" font-size="14.00" fill="#000000">SignupPageModule</text>
</g>
<!-- SignupPage&#45;&gt;SignupPageModule -->
<g id="edge24" class="edge">
<title>SignupPage&#45;&gt;SignupPageModule</title>
<path fill="none" stroke="#000000" d="M1822,-122.1061C1822,-122.1061 1822,-140.991 1822,-140.991"/>
<polygon fill="#000000" stroke="#000000" points="1818.5001,-140.9909 1822,-150.991 1825.5001,-140.991 1818.5001,-140.9909"/>
</g>
<!-- SignupPage  -->
<g id="node36" class="node">
<title>SignupPage </title>
<polygon fill="#fb8072" stroke="#000000" points="1865.3859,-252 1778.6141,-252 1778.6141,-216 1865.3859,-216 1865.3859,-252"/>
<text text-anchor="middle" x="1822" y="-229.8" font-family="Times,serif" font-size="14.00" fill="#000000">SignupPage </text>
</g>
<!-- SignupPageModule&#45;&gt;SignupPage  -->
<g id="edge25" class="edge">
<title>SignupPageModule&#45;&gt;SignupPage </title>
<path fill="none" stroke="#000000" stroke-dasharray="5,2" d="M1822,-187.1061C1822,-187.1061 1822,-205.991 1822,-205.991"/>
<polygon fill="#000000" stroke="#000000" points="1818.5001,-205.9909 1822,-215.991 1825.5001,-205.991 1818.5001,-205.9909"/>
</g>
<!-- TabsPage -->
<g id="node37" class="node">
<title>TabsPage</title>
<polygon fill="#ffffb3" stroke="#000000" points="2001.4249,-122 1930.5751,-122 1930.5751,-86 2001.4249,-86 2001.4249,-122"/>
<text text-anchor="middle" x="1966" y="-99.8" font-family="Times,serif" font-size="14.00" fill="#000000">TabsPage</text>
</g>
<!-- TabsPageModule -->
<g id="node38" class="node">
<title>TabsPageModule</title>
<polygon fill="#8dd3c7" stroke="#000000" points="2022.9734,-187 2019.9734,-191 1998.9734,-191 1995.9734,-187 1909.0266,-187 1909.0266,-151 2022.9734,-151 2022.9734,-187"/>
<text text-anchor="middle" x="1966" y="-164.8" font-family="Times,serif" font-size="14.00" fill="#000000">TabsPageModule</text>
</g>
<!-- TabsPage&#45;&gt;TabsPageModule -->
<g id="edge26" class="edge">
<title>TabsPage&#45;&gt;TabsPageModule</title>
<path fill="none" stroke="#000000" d="M1966,-122.1061C1966,-122.1061 1966,-140.991 1966,-140.991"/>
<polygon fill="#000000" stroke="#000000" points="1962.5001,-140.9909 1966,-150.991 1969.5001,-140.991 1962.5001,-140.9909"/>
</g>
<!-- TabsPage  -->
<g id="node39" class="node">
<title>TabsPage </title>
<polygon fill="#fb8072" stroke="#000000" points="2002.9236,-252 1929.0764,-252 1929.0764,-216 2002.9236,-216 2002.9236,-252"/>
<text text-anchor="middle" x="1966" y="-229.8" font-family="Times,serif" font-size="14.00" fill="#000000">TabsPage </text>
</g>
<!-- TabsPageModule&#45;&gt;TabsPage  -->
<g id="edge27" class="edge">
<title>TabsPageModule&#45;&gt;TabsPage </title>
<path fill="none" stroke="#000000" stroke-dasharray="5,2" d="M1966,-187.1061C1966,-187.1061 1966,-205.991 1966,-205.991"/>
<polygon fill="#000000" stroke="#000000" points="1962.5001,-205.9909 1966,-215.991 1969.5001,-205.991 1962.5001,-205.9909"/>
</g>
<!-- TutorialPage -->
<g id="node40" class="node">
<title>TutorialPage</title>
<polygon fill="#ffffb3" stroke="#000000" points="2157.312,-122 2068.688,-122 2068.688,-86 2157.312,-86 2157.312,-122"/>
<text text-anchor="middle" x="2113" y="-99.8" font-family="Times,serif" font-size="14.00" fill="#000000">TutorialPage</text>
</g>
<!-- TutorialPageModule -->
<g id="node41" class="node">
<title>TutorialPageModule</title>
<polygon fill="#8dd3c7" stroke="#000000" points="2178.8613,-187 2175.8613,-191 2154.8613,-191 2151.8613,-187 2047.1387,-187 2047.1387,-151 2178.8613,-151 2178.8613,-187"/>
<text text-anchor="middle" x="2113" y="-164.8" font-family="Times,serif" font-size="14.00" fill="#000000">TutorialPageModule</text>
</g>
<!-- TutorialPage&#45;&gt;TutorialPageModule -->
<g id="edge28" class="edge">
<title>TutorialPage&#45;&gt;TutorialPageModule</title>
<path fill="none" stroke="#000000" d="M2113,-122.1061C2113,-122.1061 2113,-140.991 2113,-140.991"/>
<polygon fill="#000000" stroke="#000000" points="2109.5001,-140.9909 2113,-150.991 2116.5001,-140.991 2109.5001,-140.9909"/>
</g>
<!-- TutorialPage  -->
<g id="node42" class="node">
<title>TutorialPage </title>
<polygon fill="#fb8072" stroke="#000000" points="2158.8116,-252 2067.1884,-252 2067.1884,-216 2158.8116,-216 2158.8116,-252"/>
<text text-anchor="middle" x="2113" y="-229.8" font-family="Times,serif" font-size="14.00" fill="#000000">TutorialPage </text>
</g>
<!-- TutorialPageModule&#45;&gt;TutorialPage  -->
<g id="edge29" class="edge">
<title>TutorialPageModule&#45;&gt;TutorialPage </title>
<path fill="none" stroke="#000000" stroke-dasharray="5,2" d="M2113,-187.1061C2113,-187.1061 2113,-205.991 2113,-205.991"/>
<polygon fill="#000000" stroke="#000000" points="2109.5001,-205.9909 2113,-215.991 2116.5001,-205.991 2109.5001,-205.9909"/>
</g>
<!-- WelcomePage -->
<g id="node43" class="node">
<title>WelcomePage</title>
<polygon fill="#ffffb3" stroke="#000000" points="2321.3515,-122 2224.6485,-122 2224.6485,-86 2321.3515,-86 2321.3515,-122"/>
<text text-anchor="middle" x="2273" y="-99.8" font-family="Times,serif" font-size="14.00" fill="#000000">WelcomePage</text>
</g>
<!-- WelcomePageModule -->
<g id="node44" class="node">
<title>WelcomePageModule</title>
<polygon fill="#8dd3c7" stroke="#000000" points="2343.4018,-187 2340.4018,-191 2319.4018,-191 2316.4018,-187 2202.5982,-187 2202.5982,-151 2343.4018,-151 2343.4018,-187"/>
<text text-anchor="middle" x="2273" y="-164.8" font-family="Times,serif" font-size="14.00" fill="#000000">WelcomePageModule</text>
</g>
<!-- WelcomePage&#45;&gt;WelcomePageModule -->
<g id="edge30" class="edge">
<title>WelcomePage&#45;&gt;WelcomePageModule</title>
<path fill="none" stroke="#000000" d="M2273,-122.1061C2273,-122.1061 2273,-140.991 2273,-140.991"/>
<polygon fill="#000000" stroke="#000000" points="2269.5001,-140.9909 2273,-150.991 2276.5001,-140.991 2269.5001,-140.9909"/>
</g>
<!-- WelcomePage  -->
<g id="node45" class="node">
<title>WelcomePage </title>
<polygon fill="#fb8072" stroke="#000000" points="2323.352,-252 2222.648,-252 2222.648,-216 2323.352,-216 2323.352,-252"/>
<text text-anchor="middle" x="2273" y="-229.8" font-family="Times,serif" font-size="14.00" fill="#000000">WelcomePage </text>
</g>
<!-- WelcomePageModule&#45;&gt;WelcomePage  -->
<g id="edge31" class="edge">
<title>WelcomePageModule&#45;&gt;WelcomePage </title>
<path fill="none" stroke="#000000" stroke-dasharray="5,2" d="M2273,-187.1061C2273,-187.1061 2273,-205.991 2273,-205.991"/>
<polygon fill="#000000" stroke="#000000" points="2269.5001,-205.9909 2273,-215.991 2276.5001,-205.991 2269.5001,-205.9909"/>
</g>
</g>
</svg>
