<?xml version="1.0" encoding="UTF-8" standalone="no"?>
<!DOCTYPE svg PUBLIC "-//W3C//DTD SVG 1.1//EN"
 "http://www.w3.org/Graphics/SVG/1.1/DTD/svg11.dtd">
<!-- Generated by graphviz version 2.40.1 (20161225.0304)
 -->
<!-- Title: dependencies Pages: 1 -->
<svg width="504pt" height="284pt"
 viewBox="0.00 0.00 504.00 284.00" xmlns="http://www.w3.org/2000/svg" xmlns:xlink="http://www.w3.org/1999/xlink">
<g id="graph0" class="graph" transform="scale(1 1) rotate(0) translate(4 280)">
<title>dependencies</title>
<polygon fill="#ffffff" stroke="transparent" points="-4,4 -4,-280 500,-280 500,4 -4,4"/>
<text text-anchor="start" x="227.0091" y="-42.4" font-family="sans-serif" font-weight="bold" font-size="14.00" fill="#000000">Legend</text>
<polygon fill="#ffffb3" stroke="transparent" points="14,-10 14,-30 34,-30 34,-10 14,-10"/>
<text text-anchor="start" x="37.629" y="-15.4" font-family="sans-serif" font-size="14.00" fill="#000000"> &#160;Declarations</text>
<polygon fill="#8dd3c7" stroke="transparent" points="127,-10 127,-30 147,-30 147,-10 127,-10"/>
<text text-anchor="start" x="150.7251" y="-15.4" font-family="sans-serif" font-size="14.00" fill="#000000"> &#160;Module</text>
<polygon fill="#80b1d3" stroke="transparent" points="213,-10 213,-30 233,-30 233,-10 213,-10"/>
<text text-anchor="start" x="236.7812" y="-15.4" font-family="sans-serif" font-size="14.00" fill="#000000"> &#160;Bootstrap</text>
<polygon fill="#fdb462" stroke="transparent" points="310,-10 310,-30 330,-30 330,-10 310,-10"/>
<text text-anchor="start" x="333.6732" y="-15.4" font-family="sans-serif" font-size="14.00" fill="#000000"> &#160;Providers</text>
<polygon fill="#fb8072" stroke="transparent" points="406,-10 406,-30 426,-30 426,-10 406,-10"/>
<text text-anchor="start" x="429.7258" y="-15.4" font-family="sans-serif" font-size="14.00" fill="#000000"> &#160;Exports</text>
<g id="clust1" class="cluster">
<title>cluster_AppModule</title>
<polygon fill="none" stroke="#000000" stroke-dasharray="1,5" points="83.5,-70 83.5,-268 412.5,-268 412.5,-70 83.5,-70"/>
</g>
<g id="clust2" class="cluster">
<title>cluster_AppModule_declarations</title>
<polygon fill="none" stroke="#000000" points="328.5,-78 328.5,-130 404.5,-130 404.5,-78 328.5,-78"/>
</g>
<g id="clust6" class="cluster">
<title>cluster_AppModule_bootstrap</title>
<polygon fill="none" stroke="#000000" points="202.5,-208 202.5,-260 290.5,-260 290.5,-208 202.5,-208"/>
</g>
<g id="clust7" class="cluster">
<title>cluster_AppModule_providers</title>
<polygon fill="none" stroke="#000000" points="91.5,-78 91.5,-130 320.5,-130 320.5,-78 91.5,-78"/>
</g>
<!-- MyApp -->
<g id="node1" class="node">
<title>MyApp</title>
<polygon fill="#ffffb3" stroke="#000000" points="396.0529,-122 336.9471,-122 336.9471,-86 396.0529,-86 396.0529,-122"/>
<text text-anchor="middle" x="366.5" y="-99.8" font-family="Times,serif" font-size="14.00" fill="#000000">MyApp</text>
</g>
<!-- AppModule -->
<g id="node2" class="node">
<title>AppModule</title>
<polygon fill="#8dd3c7" stroke="#000000" points="288.1571,-187 285.1571,-191 264.1571,-191 261.1571,-187 204.8429,-187 204.8429,-151 288.1571,-151 288.1571,-187"/>
<text text-anchor="middle" x="246.5" y="-164.8" font-family="Times,serif" font-size="14.00" fill="#000000">AppModule</text>
</g>
<!-- MyApp&#45;&gt;AppModule -->
<g id="edge1" class="edge">
<title>MyApp&#45;&gt;AppModule</title>
<path fill="none" stroke="#000000" d="M366.5,-122.1061C366.5,-141.3391 366.5,-169 366.5,-169 366.5,-169 298.4702,-169 298.4702,-169"/>
<polygon fill="#000000" stroke="#000000" points="298.4702,-165.5001 288.4702,-169 298.4701,-172.5001 298.4702,-165.5001"/>
</g>
<!-- IonicApp  -->
<g id="node3" class="node">
<title>IonicApp </title>
<polygon fill="#80b1d3" stroke="#000000" points="282.8734,-252 210.1266,-252 210.1266,-216 282.8734,-216 282.8734,-252"/>
<text text-anchor="middle" x="246.5" y="-229.8" font-family="Times,serif" font-size="14.00" fill="#000000">IonicApp </text>
</g>
<!-- AppModule&#45;&gt;IonicApp  -->
<g id="edge2" class="edge">
<title>AppModule&#45;&gt;IonicApp </title>
<path fill="none" stroke="#000000" stroke-dasharray="1,5" d="M246.5,-187.1061C246.5,-187.1061 246.5,-205.991 246.5,-205.991"/>
<polygon fill="#000000" stroke="#000000" points="243.0001,-205.9909 246.5,-215.991 250.0001,-205.991 243.0001,-205.9909"/>
</g>
<!-- Api -->
<g id="node4" class="node">
<title>Api</title>
<ellipse fill="#fdb462" stroke="#000000" cx="285.5" cy="-104" rx="27" ry="18"/>
<text text-anchor="middle" x="285.5" y="-99.8" font-family="Times,serif" font-size="14.00" fill="#000000">Api</text>
</g>
<!-- Api&#45;&gt;AppModule -->
<g id="edge3" class="edge">
<title>Api&#45;&gt;AppModule</title>
<path fill="none" stroke="#000000" d="M273.4141,-120.4022C273.4141,-120.4022 273.4141,-140.5366 273.4141,-140.5366"/>
<polygon fill="#000000" stroke="#000000" points="269.9142,-140.5366 273.4141,-150.5366 276.9142,-140.5367 269.9142,-140.5366"/>
</g>
<!-- Items -->
<g id="node5" class="node">
<title>Items</title>
<ellipse fill="#fdb462" stroke="#000000" cx="208.5" cy="-104" rx="32.4788" ry="18"/>
<text text-anchor="middle" x="208.5" y="-99.8" font-family="Times,serif" font-size="14.00" fill="#000000">Items</text>
</g>
<!-- Items&#45;&gt;AppModule -->
<g id="edge4" class="edge">
<title>Items&#45;&gt;AppModule</title>
<path fill="none" stroke="#000000" d="M222.8306,-120.4022C222.8306,-120.4022 222.8306,-140.5366 222.8306,-140.5366"/>
<polygon fill="#000000" stroke="#000000" points="219.3307,-140.5366 222.8306,-150.5366 226.3307,-140.5367 219.3307,-140.5366"/>
</g>
<!-- User -->
<g id="node6" class="node">
<title>User</title>
<ellipse fill="#fdb462" stroke="#000000" cx="128.5" cy="-104" rx="29.0318" ry="18"/>
<text text-anchor="middle" x="128.5" y="-99.8" font-family="Times,serif" font-size="14.00" fill="#000000">User</text>
</g>
<!-- User&#45;&gt;AppModule -->
<g id="edge5" class="edge">
<title>User&#45;&gt;AppModule</title>
<path fill="none" stroke="#000000" d="M128.5,-122.1061C128.5,-141.3391 128.5,-169 128.5,-169 128.5,-169 194.5654,-169 194.5654,-169"/>
<polygon fill="#000000" stroke="#000000" points="194.5654,-172.5001 204.5654,-169 194.5653,-165.5001 194.5654,-172.5001"/>
</g>
</g>
</svg>
